<?xml version="1.0"?>
<svg xmlns="http://www.w3.org/2000/svg" xmlns:xlink="http://www.w3.org/1999/xlink" xmlns:svgjs="http://svgjs.com/svgjs" version="1.1" width="512" height="512" x="0" y="0" viewBox="0 0 24 24" style="enable-background:new 0 0 512 512" xml:space="preserve"><g><path xmlns="http://www.w3.org/2000/svg" d="m14.707 5.293a1 1 0 0 0 -1.414 0l-12 12a1 1 0 0 0 -.293.707v4a1 1 0 0 0 1 1h4a1 1 0 0 0 .707-.293l12-12a1 1 0 0 0 0-1.414zm-9.121 15.707h-2.586v-2.586l11-11 2.586 2.586z" fill="#1d4aac" data-original="#000000" style=""/><path xmlns="http://www.w3.org/2000/svg" d="m22.707 5.293-4-4a1 1 0 0 0 -1.414 0l-2 2a1 1 0 0 0 1.414 1.414l1.293-1.293 2.586 2.586-1.293 1.293a1 1 0 1 0 1.414 1.414l2-2a1 1 0 0 0 0-1.414z" fill="#1d4aac" data-original="#000000" style=""/></g></svg>
